<svg width="78" height="70" viewBox="0 0 78 70" fill="none" xmlns="http://www.w3.org/2000/svg">
<g clip-path="url(#clip0_5_66)">
<path d="M51.1202 47.0901L66.6902 62.6701L59.3802 69.9801L43.8102 54.4001C42.4702 53.0601 40.7102 52.3401 38.8202 52.3401C36.9302 52.3401 35.1702 53.0701 33.8302 54.4001L18.2602 69.9801L10.9502 62.6701L26.5202 47.0901H51.1102H51.1202Z" fill="white"/>
<path d="M53.7202 42.6L74.9902 48.3L77.6602 38.3L56.3902 32.6C54.5702 32.11 53.0502 30.95 52.1002 29.31C51.1502 27.68 50.9102 25.78 51.4002 23.95L57.0902 2.67L47.1002 0L41.4102 21.28L53.7102 42.58H53.7202V42.6Z" fill="white"/>
<path d="M23.94 42.6L2.67 48.3L0 38.3L21.27 32.6C23.09 32.11 24.61 30.95 25.56 29.31C26.51 27.68 26.75 25.78 26.26 23.95L20.56 2.67L30.55 0L36.24 21.28L23.94 42.58H23.93L23.94 42.6Z" fill="white"/>
</g>
<defs>
<clipPath id="clip0_5_66">
<rect width="77.65" height="69.98" fill="white"/>
</clipPath>
</defs>
</svg>
