<?xml version="1.0" encoding="utf-8"?>
<!-- Generator: Adobe Adobe Illustrator 24.2.0, SVG Export Plug-In . SVG Version: 6.00 Build 0)  -->
<svg version="1.1" id="Layer_1" xmlns="http://www.w3.org/2000/svg" xmlns:xlink="http://www.w3.org/1999/xlink" x="0px" y="0px"
	 width="1920px" height="1080px" viewBox="0 0 1920 1080" style="enable-background:new 0 0 1920 1080;" xml:space="preserve">
<style type="text/css">
	.st0{fill:none;}
	.st1{opacity:6.000000e-02;}
	.st2{fill:#138019;}
	.st3{fill:#0B1511;}
	.st4{fill:url(#New_Pattern);}
	.st5{display:none;}
	.st6{display:inline;fill:#FFFFFF;}
	.st7{fill:#00512D;}
</style>
<pattern  width="77.7" height="70" patternUnits="userSpaceOnUse" id="New_Pattern" viewBox="22.6 -79 77.7 70" style="overflow:visible;">
	<g>
		<rect x="22.6" y="-79" class="st0" width="77.7" height="70"/>
		<g>
			<g class="st1">
				<path class="st2" d="M92.2-3.5l7.5-12.9l-3.5-12.9l-6.1,1.6l3.5,12.9c0.3,1.1,0.1,2.3-0.4,3.3c-0.6,1-1.5,1.7-2.6,2L77.7-6.1
					L79.3,0L92.2-3.5L92.2-3.5z"/>
			</g>
		</g>
		<g>
			<g class="st1">
				<path class="st2" d="M32.6-3.5l-7.5-12.9l3.5-12.9l6.1,1.6l-3.5,12.9c-0.3,1.1-0.1,2.3,0.4,3.3c0.6,1,1.5,1.7,2.6,2l12.9,3.5
					L45.5,0L32.6-3.5L32.6-3.5z"/>
			</g>
		</g>
		<g>
			<g class="st1">
				<path class="st2" d="M108.7-70.7H93.8l-9.5,9.5l4.4,4.4l9.5-9.5c0.8-0.8,1.9-1.3,3-1.3c1.1,0,2.2,0.4,3,1.3l9.5,9.5l4.4-4.4
					L108.7-70.7L108.7-70.7z"/>
				<path class="st2" d="M92.2-73.5l7.5-12.9l-3.5-12.9l-6.1,1.6l3.5,12.9c0.3,1.1,0.1,2.3-0.4,3.3c-0.6,1-1.5,1.7-2.6,2l-12.9,3.5
					l1.6,6.1L92.2-73.5L92.2-73.5z"/>
			</g>
		</g>
		<g>
			<g class="st1">
				<path class="st2" d="M67.8-37.5H52.9l-9.5,9.5l4.4,4.4l9.5-9.5c0.8-0.8,1.9-1.3,3-1.3c1.1,0,2.2,0.4,3,1.3l9.5,9.5l4.4-4.4
					L67.8-37.5L67.8-37.5z"/>
				<path class="st2" d="M69.4-40.3L62-53.2l3.5-12.9l6.1,1.6L68-51.6c-0.3,1.1-0.1,2.3,0.4,3.3c0.6,1,1.5,1.7,2.6,2L84-42.9
					l-1.6,6.1L69.4-40.3L69.4-40.3z"/>
				<path class="st2" d="M51.4-40.3l7.5-12.9l-3.5-12.9l-6.1,1.6l3.5,12.9c0.3,1.1,0.1,2.3-0.4,3.3c-0.6,1-1.5,1.7-2.6,2l-12.9,3.5
					l1.6,6.1L51.4-40.3L51.4-40.3z"/>
			</g>
			<g class="st1">
				<path class="st2" d="M31-70.7H16.1l-9.5,9.5l4.4,4.4l9.5-9.5c0.8-0.8,1.9-1.3,3-1.3c1.1,0,2.2,0.4,3,1.3l9.5,9.5l4.4-4.4
					L31-70.7L31-70.7z"/>
				<path class="st2" d="M32.6-73.5l-7.5-12.9l3.5-12.9l6.1,1.6l-3.5,12.9c-0.3,1.1-0.1,2.3,0.4,3.3c0.6,1,1.5,1.7,2.6,2l12.9,3.5
					L45.5-70L32.6-73.5L32.6-73.5z"/>
				<path class="st2" d="M14.5-73.5L22-86.4l-3.5-12.9l-6.1,1.6l3.5,12.9c0.3,1.1,0.1,2.3-0.4,3.3c-0.6,1-1.5,1.7-2.6,2L0-76.1
					L1.6-70L14.5-73.5L14.5-73.5z"/>
			</g>
		</g>
	</g>
</pattern>
<g>
	<rect class="st3" width="1920" height="1080"/>
	<rect class="st4" width="1920" height="1080"/>
</g>
<g class="st5">
	<path class="st6" d="M987.8,567.4l35.3,35.3l-16.5,16.6L971.3,584c-3-3-7-4.7-11.3-4.7s-8.3,1.7-11.3,4.7l-35.3,35.3l-16.5-16.6
		l35.3-35.3H987.8L987.8,567.4z"/>
	<path class="st6" d="M993.7,557.2l48.2,12.9l6-22.6l-48.2-12.9c-4.1-1.1-7.6-3.7-9.7-7.5c-2.1-3.7-2.7-8-1.6-12.1l12.9-48.2
		l-22.6-6.1l-12.9,48.2L993.7,557.2L993.7,557.2z"/>
	<path class="st6" d="M926.3,557.2l-48.2,12.9l-6-22.6l48.2-12.9c4.1-1.1,7.6-3.7,9.7-7.5c2.1-3.7,2.7-8,1.6-12.1l-12.9-48.2
		l22.6-6.1l12.9,48.2L926.3,557.2L926.3,557.2z"/>
</g>
</svg>
